<svg xmlns="http://www.w3.org/2000/svg" width="58" height="46" viewBox="0 0 58 46" fill="none">
  <g clip-path="url(#clip0_868_12608)">
    <path d="M48.8852 4.49132C45.1502 2.74275 41.1988 1.50032 37.1355 0.796875C36.6294 1.71242 36.0381 2.94383 35.6303 3.92348C31.2494 3.26429 26.9087 3.26429 22.6083 3.92348C22.2007 2.94405 21.596 1.71242 21.0852 0.796875C17.018 1.50063 13.0632 2.74622 9.32641 4.50045C1.89046 15.7436 -0.125366 26.7072 0.882438 37.5156C5.81445 41.2007 10.5941 43.4394 15.2931 44.9043C16.4611 43.2975 17.4934 41.5962 18.3795 39.8182C16.6923 39.1755 15.0658 38.3835 13.5194 37.4515C13.9263 37.1497 14.3237 36.8352 14.7109 36.5084C24.0819 40.894 34.2641 40.894 43.5234 36.5084C43.9123 36.833 44.3096 37.1475 44.7148 37.4515C43.1658 38.386 41.5363 39.1796 39.8457 39.8229C40.7369 41.6081 41.7674 43.311 42.9321 44.9088C47.6356 43.4441 52.4197 41.2054 57.3517 37.5156C58.5344 24.9861 55.3316 14.1231 48.8852 4.49132ZM19.6563 30.8687C16.8431 30.8687 14.5361 28.2409 14.5361 25.0411C14.5361 21.8412 16.7939 19.209 19.6563 19.209C22.5186 19.209 24.8257 21.8366 24.7765 25.0411C24.7809 28.2409 22.5188 30.8687 19.6563 30.8687ZM38.5778 30.8687C35.7647 30.8687 33.4578 28.2409 33.4578 25.0411C33.4578 21.8412 35.7155 19.209 38.5778 19.209C41.4404 19.209 43.7472 21.8366 43.6981 25.0411C43.6981 28.2409 41.4404 30.8687 38.5778 30.8687Z" fill="white"/>
  </g>
  <defs>
    <clipPath id="clip0_868_12608">
      <rect width="56.9531" height="44.2969" fill="white" transform="translate(0.640625 0.796875)"/>
    </clipPath>
  </defs>
</svg>