<svg xmlns="http://www.w3.org/2000/svg" width="60" height="60" viewBox="0 0 186 186" fill="none">
  <g clip-path="url(#clip0_826_19065)">
    <path d="M155.26 0H30.57C13.6867 0 0 13.6867 0 30.57V155.26C0 172.143 13.6867 185.83 30.57 185.83H155.26C172.143 185.83 185.83 172.143 185.83 155.26V30.57C185.83 13.6867 172.143 0 155.26 0Z" fill="#191919"/>
    <path d="M103.17 63.3C108.118 63.3 112.13 59.2885 112.13 54.34C112.13 49.3915 108.118 45.38 103.17 45.38C98.2215 45.38 94.21 49.3915 94.21 54.34C94.21 59.2885 98.2215 63.3 103.17 63.3Z" fill="#191919"/>
    <path d="M120.45 124.55L64.4902 108.18C64.4902 108.18 66.9702 97.95 73.6002 87.61L122.7 102.75C122.7 102.75 126.03 113.62 120.44 124.55H120.45Z" fill="url(#paint0_linear_826_19065)"/>
    <path d="M135.76 82.1C129 73.78 119.18 70.02 109.51 66.26C107.36 65.43 105.32 64.26 103.08 63.67C102.44 63.5 101.83 63.3 101.27 63.1C101.27 63.1 101.263 63.0967 101.25 63.09C96.3395 61.25 94.4195 57.89 95.0695 53.36C95.6995 48.93 100.94 45.89 105.59 47.05C107.94 47.63 109.82 49.12 110.95 51.06C111.6 52.15 112.01 53.38 112.12 54.68V54.71C112.16 55.17 112.17 55.65 112.13 56.13L133.34 51.96C133.31 51.65 133.27 51.33 133.22 51.02C131.56 39.46 123.1 29.49 111.07 26.48C95.1895 22.51 77.2595 27.42 72.1395 45.39C69.0195 56.36 70.1995 75.45 94.3495 84.05C106.23 88.29 119.39 94.27 122.71 102.75C122.71 102.75 126.04 113.62 120.45 124.55C115.47 134.34 100.83 140.06 85.8695 136.44C71.8095 133.03 61.0895 122.85 64.4895 108.18C64.5995 107.75 67.1095 97.73 73.5995 87.61L49.5095 80.19C19.8795 127.64 55.1195 158.02 85.9695 160.4C104.15 161.8 124.69 157.39 136.67 142.55C150.45 125.48 149.43 98.94 135.76 82.1Z" fill="white"/>
    <path d="M141.14 51.01H110.95V58.83H141.14V51.01Z" fill="white"/>
    <path d="M120.45 124.55C115.47 134.34 100.83 140.06 85.8697 136.44C71.8097 133.03 61.0897 122.85 64.4897 108.18L120.45 124.55Z" fill="black"/>
  </g>
  <defs>
    <linearGradient id="paint0_linear_826_19065" x1="68.0402" y1="96.23" x2="123.12" y2="116.13" gradientUnits="userSpaceOnUse">
      <stop offset="0.17" stop-color="white"/>
      <stop offset="0.37" stop-color="white" stop-opacity="0.9801"/>
      <stop offset="0.48" stop-color="white" stop-opacity="0.9216"/>
      <stop offset="0.57" stop-color="white" stop-opacity="0.81"/>
      <stop offset="0.65" stop-color="white" stop-opacity="0.6889"/>
      <stop offset="0.73" stop-color="white" stop-opacity="0.5329"/>
      <stop offset="0.8" stop-color="white" stop-opacity="0.36"/>
      <stop offset="0.86" stop-color="white" stop-opacity="0.2025"/>
      <stop offset="0.92" stop-color="white" stop-opacity="0.0784"/>
      <stop offset="0.97" stop-color="white" stop-opacity="0.01"/>
      <stop offset="1" stop-color="white" stop-opacity="0"/>
    </linearGradient>
    <clipPath id="clip0_826_19065">
      <rect width="185.83" height="185.83" fill="white"/>
    </clipPath>
  </defs>
</svg>