<svg width="51" height="64" viewBox="0 0 51 64" fill="none" xmlns="http://www.w3.org/2000/svg">
<path d="M45.9271 26.9742C42.7405 23.0522 38.1114 21.2798 33.5531 19.5073C32.5396 19.1161 31.5779 18.5645 30.522 18.2864C30.2203 18.2063 29.9327 18.112 29.6688 18.0177C29.6688 18.0177 29.6656 18.0162 29.6593 18.013C27.3448 17.1457 26.4397 15.5618 26.7461 13.4264C27.0431 11.3381 29.5132 9.90505 31.7052 10.4519C32.813 10.7253 33.6992 11.4277 34.2319 12.3422C34.5383 12.856 34.7315 13.4358 34.7834 14.0486V14.0627C34.8022 14.2796 34.807 14.5059 34.7881 14.7321L44.7864 12.7664C44.7722 12.6203 44.7534 12.4694 44.7298 12.3233C43.9473 6.87399 39.9593 2.1742 34.2884 0.75531C26.8027 -1.11612 18.3506 1.19842 15.9371 9.66936C14.4663 14.8405 15.0226 23.8394 26.4067 27.8934C32.0069 29.8921 38.2104 32.7111 39.7754 36.7085C39.7754 36.7085 41.3452 41.8325 38.7101 46.9848C36.3626 51.5998 29.4614 54.2962 22.4093 52.5897C15.7815 50.9823 10.7282 46.1835 12.3309 39.2681C12.3828 39.0654 13.566 34.3421 16.6253 29.5716L5.26945 26.0738C-8.69793 48.4415 7.91397 62.7624 22.4565 63.8843C31.0264 64.5442 40.7088 62.4654 46.3561 55.4699C52.8519 47.4232 52.3711 34.9125 45.9271 26.9742Z" fill="white"/>
</svg>
